<?xml version="1.0" encoding="UTF-8"?>
<!DOCTYPE svg PUBLIC "-//W3C//DTD SVG 1.1//EN" "http://www.w3.org/Graphics/SVG/1.1/DTD/svg11.dtd">
<!-- Creator: CorelDRAW 2021 (64-Bit) -->
<svg xmlns="http://www.w3.org/2000/svg" xml:space="preserve" width="100%" height="100%" version="1.1" style="shape-rendering:geometricPrecision; text-rendering:geometricPrecision; image-rendering:optimizeQuality; fill-rule:evenodd; clip-rule:evenodd"
viewBox="0 0 2.70813 2.22624"
 xmlns:xlink="http://www.w3.org/1999/xlink"
 xmlns:xodm="http://www.corel.com/coreldraw/odm/2003">
 <defs>
  <style type="text/css">
   <![CDATA[
    .fil4 {fill:none}
    .fil0 {fill:#03264C}
    .fil3 {fill:#03264C;fill-rule:nonzero}
    .fil1 {fill:#EAC926;fill-rule:nonzero}
    .fil2 {fill:white;fill-rule:nonzero}
   ]]>
  </style>
    <clipPath id="id0">
     <path d="M0.83193 0.90185l-0.0024 0.0024c0.00016,-0.00016 0.00321,-0.00159 0.0024,-0.0024zm-0.22546 -0.27379c-0.0008,-0.00081 -0.0024,0.00126 -0.0024,0.0024l0.0024 -0.0024zm0.00805 -0.0161l0.10654 -0.11893c0.06783,-0.06707 0.18715,-0.14329 0.27671,-0.17422 0.03131,-0.01082 0.05474,-0.01605 0.08877,-0.02425 0.00164,-0.00039 0.04612,-0.00953 0.04677,-0.00952 0.02556,0.00019 0.0168,0.00564 0.0157,0.02233 -0.01138,0.17239 -0.12186,0.41191 -0.25052,0.54026 -0.02243,0.02237 -0.04376,0.03223 -0.0585,0.05424l0.25863 -0.07957c0.57508,-0.17164 1.44982,0.06196 1.32559,0.73778 -0.0153,0.08319 -0.03626,0.08817 -0.04623,0.13093l0.12079 0c0,0.02729 -0.01471,0.08136 0.07274,0.08891 0.07661,0.00661 0.08385,-0.02815 0.13662,-0.03255 -0.01976,0.04119 -0.03702,0.22951 -0.27382,0.22607 -0.04591,-0.00067 -0.13952,-0.01922 -0.20622,0.02665 -0.07965,0.05477 -0.06461,0.13851 -0.09565,0.16204 -0.11443,0.08678 -0.79782,0.06033 -0.94622,0.06033l0.03065 -0.09013c0.02,-0.05514 0.0893,-0.06285 0.15456,-0.06285l0 -0.0161c-0.0003,0.0003 -0.4529,0.00805 -0.48313,0.00805 0.02159,0.04082 0.02416,0.0507 0.02416,0.11274 -0.05848,0.02806 -0.17391,0.0161 -0.25767,0.0161 -0.20645,0 -0.34313,0.04135 -0.29281,-0.10756 0.02077,-0.06144 0.10756,-0.09248 0.1687,-0.10513 0.05494,-0.01138 0.08258,0.00417 0.08385,-0.05304 -0.07648,-0.00636 -0.16347,-0.08428 -0.20308,-0.14317 -0.06307,-0.09376 -0.05459,-0.14391 -0.05459,-0.29165 0.10265,0 0.2067,-0.06443 0.22546,-0.14494 -0.03776,0.02529 -0.05819,0.05945 -0.1071,0.08616 -0.04431,0.0242 -0.09383,0.04214 -0.16465,0.03264 -0.07477,-0.01003 -0.25652,-0.0584 -0.29272,-0.1019 -0.04429,-0.05322 0.00578,-0.28696 0.02196,-0.34198 0.05805,-0.19741 0.19808,-0.33998 0.4023,-0.38684 0.10936,-0.02509 0.08802,0.0169 0.10719,-0.08606 0.01738,-0.09335 0.06585,-0.2003 0.11708,-0.27748 0.09081,-0.13682 0.19219,-0.19388 0.33465,-0.26927 0.0365,0.07607 0.02487,0.19357 0.00805,0.26572 -0.18495,0 -0.38576,0.24037 -0.39457,0.34626l-0 -0.00002z"/>
    </clipPath>
 </defs>
 <g id="Capa_x0020_1">
  <metadata id="CorelCorpID_0Corel-Layer"/>
  <g id="_3051255746016">
   <path class="fil0" d="M0.83193 0.90185l-0.0024 0.0024c0.00016,-0.00016 0.00321,-0.00159 0.0024,-0.0024zm-0.22546 -0.27379c-0.0008,-0.00081 -0.0024,0.00126 -0.0024,0.0024l0.0024 -0.0024zm0.00805 -0.0161l0.10654 -0.11893c0.06783,-0.06707 0.18715,-0.14329 0.27671,-0.17422 0.03131,-0.01082 0.05474,-0.01605 0.08877,-0.02425 0.00164,-0.00039 0.04612,-0.00953 0.04677,-0.00952 0.02556,0.00019 0.0168,0.00564 0.0157,0.02233 -0.01138,0.17239 -0.12186,0.41191 -0.25052,0.54026 -0.02243,0.02237 -0.04376,0.03223 -0.0585,0.05424l0.25863 -0.07957c0.57508,-0.17164 1.44982,0.06196 1.32559,0.73778 -0.0153,0.08319 -0.03626,0.08817 -0.04623,0.13093l0.12079 0c0,0.02729 -0.01471,0.08136 0.07274,0.08891 0.07661,0.00661 0.08385,-0.02815 0.13662,-0.03255 -0.01976,0.04119 -0.03702,0.22951 -0.27382,0.22607 -0.04591,-0.00067 -0.13952,-0.01922 -0.20622,0.02665 -0.07965,0.05477 -0.06461,0.13851 -0.09565,0.16204 -0.11443,0.08678 -0.79782,0.06033 -0.94622,0.06033l0.03065 -0.09013c0.02,-0.05514 0.0893,-0.06285 0.15456,-0.06285l0 -0.0161c-0.0003,0.0003 -0.4529,0.00805 -0.48313,0.00805 0.02159,0.04082 0.02416,0.0507 0.02416,0.11274 -0.05848,0.02806 -0.17391,0.0161 -0.25767,0.0161 -0.20645,0 -0.34313,0.04135 -0.29281,-0.10756 0.02077,-0.06144 0.10756,-0.09248 0.1687,-0.10513 0.05494,-0.01138 0.08258,0.00417 0.08385,-0.05304 -0.07648,-0.00636 -0.16347,-0.08428 -0.20308,-0.14317 -0.06307,-0.09376 -0.05459,-0.14391 -0.05459,-0.29165 0.10265,0 0.2067,-0.06443 0.22546,-0.14494 -0.03776,0.02529 -0.05819,0.05945 -0.1071,0.08616 -0.04431,0.0242 -0.09383,0.04214 -0.16465,0.03264 -0.07477,-0.01003 -0.25652,-0.0584 -0.29272,-0.1019 -0.04429,-0.05322 0.00578,-0.28696 0.02196,-0.34198 0.05805,-0.19741 0.19808,-0.33998 0.4023,-0.38684 0.10936,-0.02509 0.08802,0.0169 0.10719,-0.08606 0.01738,-0.09335 0.06585,-0.2003 0.11708,-0.27748 0.09081,-0.13682 0.19219,-0.19388 0.33465,-0.26927 0.0365,0.07607 0.02487,0.19357 0.00805,0.26572 -0.18495,0 -0.38576,0.24037 -0.39457,0.34626l-0 -0.00002z"/>
   <g>
   </g>
   <g style="clip-path:url(#id0)">
    <g id="_3051255746688">
     <path id="_1" class="fil1" d="M2.33172 1.4153c0,0.3002 -0.38036,0.54355 -0.84963,0.54355 -0.46926,0 -0.84962,-0.24333 -0.84962,-0.54355 0,-0.3002 0.38036,-0.54354 0.84962,-0.54354 0.46926,0 0.84963,0.24333 0.84963,0.54354z"/>
     <path id="path30" class="fil2" d="M1.20002 1.24381c-0.00041,0.00082 -0.00896,0.00958 -0.0034,0.01669 0.01339,0.0171 0.05481,0.02699 0.09674,0.01752 0.02493,-0.00557 0.05686,-0.03101 0.08788,-0.05563 0.03359,-0.02669 0.06686,-0.05337 0.10034,-0.06398 0.03544,-0.01123 0.05811,-0.00649 0.07315,-0.00185 0.01649,0.00494 0.03574,0.01576 0.06666,0.03894 0.05811,0.04368 0.29196,0.24777 0.33225,0.28301 0.03256,-0.01473 0.1771,-0.07696 0.37356,-0.12023 -0.0171,-0.10477 -0.08078,-0.20059 -0.1774,-0.27898 -0.13465,0.05656 -0.29919,0.08602 -0.4602,0.00752 -0.00082,-0.00031 -0.08788,-0.04151 -0.1738,-0.03956 -0.12765,0.00298 -0.18297,0.05821 -0.24148,0.11672l-0.07428 0.07985 -0.00002 -0.00002z"/>
     <path id="path34" class="fil2" d="M1.94405 1.50066c-0.00278,-0.00248 -0.27487,-0.24056 -0.33647,-0.28692 -0.03565,-0.02679 -0.05554,-0.03359 -0.07635,-0.03626 -0.01081,-0.00144 -0.02585,0.00061 -0.03626,0.0035 -0.02864,0.00783 -0.06614,0.03287 -0.09942,0.05924 -0.03451,0.02741 -0.06696,0.05326 -0.09715,0.06006 -0.03853,0.00866 -0.08561,-0.00154 -0.10703,-0.01607 -0.00875,-0.00587 -0.01484,-0.01257 -0.01782,-0.01947 -0.00794,-0.01844 0.00669,-0.03307 0.00907,-0.03554l0.0751 -0.08119c0.00875,-0.00875 0.01752,-0.01741 0.02648,-0.02606 -0.02421,0.0032 -0.04668,0.00938 -0.06841,0.01546 -0.0272,0.00761 -0.05337,0.01493 -0.07985,0.01493 -0.01103,0 -0.07027,-0.00968 -0.08148,-0.01277 -0.068,-0.01865 -0.12765,-0.03668 -0.21666,-0.0783 -0.10674,0.07943 -0.17813,0.17884 -0.19873,0.28825 0.01535,0.00402 0.04008,0.01144 0.05038,0.0137 0.24159,0.05368 0.31691,0.10909 0.3305,0.12064 0.01473,-0.01638 0.03605,-0.02689 0.05986,-0.02689 0.02679,0 0.05079,0.01349 0.06542,0.0342 0.01381,-0.01092 0.03297,-0.02029 0.05759,-0.02029 0.01123,0 0.02287,0.00206 0.03461,0.00607 0.0272,0.00938 0.04131,0.02751 0.04863,0.04389 0.00917,-0.00412 0.02039,-0.00721 0.03358,-0.00711 0.01298,0 0.02658,0.00298 0.04019,0.00886 0.04451,0.01916 0.05151,0.06284 0.04739,0.09581 0.0032,-0.00041 0.00639,-0.00052 0.00958,-0.00052 0.05286,0 0.09571,0.04296 0.09571,0.09581 0,0.01638 -0.00422,0.03173 -0.01143,0.04522 0.01432,0.00804 0.051,0.02637 0.08313,0.02226 0.02565,-0.00329 0.03545,-0.01206 0.03894,-0.017 0.00237,-0.0034 0.00495,-0.00732 0.00258,-0.0102l-0.0682 -0.07572c0,0 -0.01123,-0.01061 -0.00752,-0.01473 0.00381,-0.00423 0.01072,0.00185 0.01566,0.00597 0.03472,0.02896 0.07706,0.07273 0.07706,0.07273 0.00072,0.00041 0.0035,0.00598 0.01916,0.00875 0.01349,0.00237 0.03739,0.00103 0.05388,-0.01257 0.00412,-0.0034 0.00835,-0.00772 0.01184,-0.01215 -0.00031,0.0002 -0.00051,0.00051 -0.00072,0.00061 0.01741,-0.02235 -0.00195,-0.04491 -0.00195,-0.04491l-0.07964 -0.08931c0,0 -0.01133,-0.0105 -0.00752,-0.01473 0.0035,-0.00371 0.01082,0.00185 0.01576,0.00597 0.02524,0.02112 0.06078,0.05677 0.09488,0.09025 0.0067,0.00495 0.03668,0.02339 0.07635,-0.00268 0.0241,-0.01576 0.02894,-0.03524 0.02822,-0.04986 -0.00165,-0.01937 -0.0168,-0.03317 -0.0168,-0.03317l-0.10869 -0.10931c0,0 -0.01143,-0.0098 -0.00741,-0.01473 0.00329,-0.00412 0.01081,0.00185 0.01566,0.00597 0.03462,0.02896 0.12836,0.11487 0.12836,0.11487 0.00134,0.00093 0.03369,0.02401 0.07376,-0.00144 0.01432,-0.00917 0.02349,-0.02298 0.02421,-0.03894 0.00155,-0.02761 -0.01803,-0.0442 -0.01803,-0.0442l-0.00002 -0.00002z"/>
     <path id="path38" class="fil2" d="M1.41677 1.63924c-0.0169,-0.0002 -0.03534,0.00978 -0.03771,0.00834 -0.00134,-0.00093 0.00103,-0.00762 0.00258,-0.01154 0.00165,-0.00392 0.0238,-0.07067 -0.0303,-0.09385 -0.04141,-0.01782 -0.06666,0.00217 -0.07541,0.01123 -0.00226,0.00237 -0.00329,0.00217 -0.0036,-0.00083 -0.00083,-0.01206 -0.00618,-0.0446 -0.04193,-0.05543 -0.05109,-0.01566 -0.08385,0.01998 -0.0922,0.03287 -0.00371,-0.02905 -0.02833,-0.05172 -0.05852,-0.05172 -0.03276,0 -0.05935,0.02648 -0.05935,0.05924 0,0.03276 0.02658,0.05924 0.05935,0.05924 0.01587,0 0.03039,-0.00629 0.041,-0.01658 0.00032,0.00031 0.00052,0.00083 0.00032,0.00195 -0.00248,0.01463 -0.00711,0.068 0.04872,0.08962 0.02236,0.00866 0.04142,0.00226 0.05718,-0.00886 0.00474,-0.00329 0.00546,-0.00195 0.00484,0.00248 -0.00206,0.0137 0.00051,0.04306 0.04162,0.05975 0.03131,0.01267 0.04986,-0.00031 0.06192,-0.01154 0.00525,-0.00484 0.00669,-0.00402 0.007,0.0034 0.00144,0.03967 0.03441,0.07119 0.07448,0.07119 0.04122,0 0.07459,-0.03328 0.07469,-0.07448 -0.00011,-0.04111 -0.03348,-0.07407 -0.07469,-0.07448l-0 -0.00001z"/>
     <path id="path42" class="fil3" d="M1.41677 1.78306c-0.03739,0 -0.06769,-0.02905 -0.06913,-0.06604 -0.00009,-0.0032 -0.00041,-0.01164 -0.00752,-0.01164 -0.00298,0 -0.00546,0.00175 -0.00844,0.00443 -0.00824,0.00762 -0.01865,0.01535 -0.03399,0.01535 -0.00691,0 -0.01443,-0.00165 -0.02236,-0.00484 -0.03946,-0.01598 -0.03997,-0.04306 -0.03833,-0.05398 0.00041,-0.00289 0.00052,-0.00587 -0.00144,-0.00835l-0.00237 -0.00217 -0.00248 0c-0.00206,0 -0.00402,0.00083 -0.00691,0.00278 -0.01143,0.00804 -0.02235,0.01184 -0.03348,0.01184 -0.00607,0 -0.01237,-0.00123 -0.01875,-0.0036 -0.05192,-0.02019 -0.0478,-0.06923 -0.04532,-0.08396 0.00041,-0.00298 -0.00041,-0.00525 -0.00226,-0.0068l-0.00371 -0.00298 -0.0034 0.0033c-0.01009,0.00978 -0.02339,0.01504 -0.0373,0.01504 -0.02978,0 -0.05398,-0.02421 -0.05388,-0.05388 0,-0.02978 0.02421,-0.05388 0.05398,-0.05388 0.02689,0 0.04976,0.02019 0.05315,0.04708l0.00186 0.01452 0.00793 -0.01226c0.00093,-0.00144 0.02266,-0.03441 0.06274,-0.03431 0.00763,0 0.01546,0.00124 0.02339,0.00371 0.03194,0.00978 0.03739,0.03874 0.03822,0.05079 0.00052,0.007 0.00557,0.00732 0.0066,0.00732 0.00278,0 0.00484,-0.00175 0.00618,-0.0033 0.00607,-0.00628 0.01916,-0.01669 0.03967,-0.01669 0.00938,0 0.01937,0.00226 0.02978,0.00669 0.05079,0.02173 0.02771,0.08623 0.02751,0.08694 -0.00432,0.01072 -0.00454,0.01546 -0.00041,0.01813l0.00195 0.00093 0.00143 0c0.00226,0 0.00515,-0.00103 0.00989,-0.00258 0.00691,-0.00237 0.0173,-0.00598 0.0271,-0.00598l0 0c0.03822,0.00041 0.06933,0.03153 0.06923,0.06933 0.00011,0.03802 -0.03101,0.06903 -0.06912,0.06903l0 0 -0 0.00003zm0.53778 -0.31082c-0.08387,-0.07315 -0.27755,-0.24159 -0.32998,-0.28094 -0.02998,-0.02256 -0.05038,-0.03441 -0.06841,-0.03976 -0.00803,-0.00248 -0.01926,-0.00526 -0.03359,-0.00526 -0.01339,0 -0.02771,0.00237 -0.04265,0.00721 -0.0339,0.01072 -0.06769,0.0376 -0.10034,0.06357l-0.00165 0.00134c-0.03049,0.02421 -0.06192,0.04925 -0.08571,0.05449 -0.0104,0.00237 -0.02101,0.0036 -0.03173,0.0036 -0.02669,0 -0.05059,-0.00772 -0.05955,-0.01916 -0.00144,-0.00185 -0.00051,-0.00495 0.00298,-0.00938l0.00041 -0.00061 0.07376 -0.07944c0.0578,-0.0578 0.11229,-0.11229 0.23788,-0.11518 0.00206,0 0.00423,-0.00011 0.00629,-0.00011 0.07819,0 0.15629,0.03503 0.16504,0.03905 0.07336,0.03574 0.14897,0.05387 0.225,0.05398 0.07922,0 0.16103,-0.01957 0.24705,-0.05924 -0.00958,-0.00804 -0.01958,-0.01598 -0.02988,-0.0237 -0.07552,0.03276 -0.14753,0.04935 -0.21686,0.04925 -0.07087,-0.00009 -0.14176,-0.0171 -0.21058,-0.05069 -0.0036,-0.00175 -0.08994,-0.04245 -0.17967,-0.04245 -0.00237,0 -0.00474,0 -0.00711,0.00009 -0.10549,0.00248 -0.16494,0.03997 -0.20481,0.07273 -0.03883,0.00093 -0.07243,0.0103 -0.1022,0.01865 -0.02658,0.00741 -0.04956,0.01381 -0.07201,0.01381 -0.00927,0 -0.02585,-0.00083 -0.02741,-0.00093 -0.02575,-0.00083 -0.15567,-0.03265 -0.259,-0.0717 -0.0105,0.00741 -0.0207,0.01515 -0.03059,0.02298 0.10797,0.0443 0.23933,0.0785 0.28073,0.08119 0.01154,0.00072 0.02381,0.00206 0.03616,0.00206 0.0274,0 0.05481,-0.00773 0.08128,-0.01515 0.01566,-0.00443 0.03297,-0.00916 0.05109,-0.01267 -0.00484,0.00474 -0.00969,0.00958 -0.01452,0.01442l-0.0749 0.08108c-0.00587,0.00597 -0.01865,0.02184 -0.0103,0.04141 0.0034,0.00794 0.0102,0.01546 0.01967,0.02184 0.01782,0.01206 0.04986,0.02019 0.07953,0.02019 0.01123,0 0.02194,-0.00114 0.03173,-0.0033 0.03142,-0.007 0.06438,-0.03327 0.0992,-0.06098 0.02782,-0.02215 0.06727,-0.05017 0.09756,-0.05841 0.00844,-0.00226 0.01885,-0.00371 0.0272,-0.00371 0.00248,0 0.00484,0.00009 0.007,0.00041 0.01998,0.00258 0.03936,0.00937 0.07376,0.03524 0.0615,0.04615 0.33369,0.28424 0.33627,0.28661 0.0002,0.0002 0.01752,0.01515 0.01638,0.03997 -0.00061,0.01391 -0.00835,0.02617 -0.02173,0.03472 -0.01164,0.00732 -0.02359,0.01112 -0.03574,0.01112 -0.01824,0 -0.0307,-0.00855 -0.03153,-0.00917 -0.00103,-0.00082 -0.09426,-0.08633 -0.12857,-0.11507 -0.00546,-0.00454 -0.01082,-0.00855 -0.01618,-0.00855 -0.00289,0 -0.00535,0.00123 -0.00711,0.0034 -0.00535,0.0067 0.00061,0.01587 0.00773,0.02194l0.10889 0.10951c0.00009,0.00011 0.0136,0.01278 0.01504,0.02947 0.00083,0.01813 -0.00783,0.03328 -0.02585,0.04513 -0.01289,0.00844 -0.02585,0.01277 -0.03863,0.01277 -0.01669,0 -0.02844,-0.00762 -0.03101,-0.00937l-0.01566 -0.01535c-0.02854,-0.02813 -0.058,-0.05718 -0.07964,-0.07521 -0.00525,-0.00432 -0.01092,-0.00844 -0.01628,-0.00844 -0.00258,0 -0.00505,0.00103 -0.00691,0.00288 -0.00248,0.00278 -0.00412,0.00763 0.00195,0.01576 0.00248,0.0034 0.00546,0.00618 0.00546,0.00618l0.07953 0.08922c0.00061,0.00083 0.01638,0.01947 0.00175,0.03813l-0.00278 0.0035c-0.00237,0.00268 -0.00494,0.00505 -0.00741,0.00711 -0.0136,0.01112 -0.03163,0.01237 -0.03883,0.01237 -0.00381,0 -0.00752,-0.00031 -0.01082,-0.00093 -0.00783,-0.00144 -0.01309,-0.0036 -0.01566,-0.0066l-0.00093 -0.00093c-0.00432,-0.00454 -0.0444,-0.04543 -0.07758,-0.07304 -0.00432,-0.00371 -0.00978,-0.00835 -0.01546,-0.00835 -0.00278,0 -0.00525,0.00114 -0.00721,0.0032 -0.00659,0.00721 0.0033,0.01792 0.00752,0.02184l0.06778 0.0748c-0.00011,0.00072 -0.00093,0.00226 -0.00258,0.00463 -0.00248,0.0033 -0.01061,0.01154 -0.03524,0.01463 -0.00288,0.00032 -0.00597,0.00052 -0.00896,0.00052 -0.02535,0 -0.05244,-0.01226 -0.06635,-0.01967 0.00639,-0.01339 0.00958,-0.02813 0.00958,-0.04296 0,-0.05583 -0.04523,-0.10117 -0.10106,-0.10117 -0.00114,0 -0.00248,0 -0.00361,0.00009 0.00186,-0.02544 -0.00175,-0.07366 -0.05131,-0.09499 -0.01422,-0.00618 -0.02844,-0.00927 -0.04225,-0.00927 -0.01081,0 -0.02122,0.00185 -0.03101,0.00557 -0.0102,-0.01989 -0.0273,-0.03441 -0.04956,-0.04204 -0.01226,-0.00423 -0.02452,-0.00639 -0.03626,-0.00639 -0.02061,0 -0.03956,0.00607 -0.05657,0.01813 -0.01617,-0.02019 -0.04069,-0.03215 -0.06655,-0.03215 -0.02256,0 -0.0443,0.00907 -0.06037,0.02493 -0.02112,-0.01607 -0.10477,-0.06923 -0.32884,-0.12012 -0.01082,-0.00248 -0.03574,-0.00958 -0.051,-0.01412 -0.00258,0.01215 -0.00443,0.02441 -0.00577,0.03678 0,0 0.04131,0.00989 0.04946,0.01175 0.22881,0.05079 0.30443,0.10374 0.31731,0.11363 -0.00432,0.01041 -0.0066,0.02164 -0.0066,0.03297 0,0.04729 0.03843,0.08582 0.08571,0.08582 0.00535,0 0.01061,-0.00041 0.01576,-0.00144 0.00711,0.03482 0.02988,0.0612 0.0647,0.07469 0.0102,0.00392 0.0205,0.00587 0.0305,0.00587 0.00649,0 0.01307,-0.00083 0.01958,-0.00248 0.00639,0.01638 0.02092,0.03668 0.05326,0.04976 0.01133,0.00454 0.02267,0.007 0.03369,0.007 0.00896,0 0.01782,-0.00154 0.02617,-0.00474 0.01546,0.03771 0.05233,0.06275 0.09344,0.06275 0.0272,0 0.05337,-0.01103 0.07243,-0.0307 0.01628,0.00906 0.05079,0.02544 0.08561,0.02555 0.00454,0 0.00875,-0.00031 0.01298,-0.00083 0.03461,-0.00432 0.05069,-0.01782 0.05811,-0.02844 0.00134,-0.00185 0.00258,-0.00381 0.0036,-0.00577 0.00814,0.00237 0.01721,0.00422 0.02741,0.00422 0.01885,0 0.03699,-0.00639 0.05532,-0.01978 0.01803,-0.01298 0.03081,-0.03162 0.03265,-0.04749 0,-0.0002 0.00009,-0.00041 0.00009,-0.00072 0.00607,0.00123 0.01226,0.00195 0.01855,0.00195 0.01947,0 0.03853,-0.00607 0.05687,-0.01804 0.03524,-0.02307 0.04142,-0.05337 0.0408,-0.07304 0.00618,0.00134 0.01247,0.00195 0.01875,0.00195 0.01824,0 0.03616,-0.00557 0.05326,-0.01638 0.02184,-0.01401 0.03503,-0.03533 0.03699,-0.06026 0.00134,-0.0169 -0.00278,-0.03399 -0.01175,-0.04863 0.05903,-0.02544 0.19409,-0.07469 0.35306,-0.11054 -0.00093,-0.01237 -0.00278,-0.02452 -0.00494,-0.03657 -0.19233,0.04285 -0.33584,0.10497 -0.3718,0.12104l0.00005 0.00006z"/>
    </g>
   </g>
   <path class="fil4" d="M0.83193 0.90185l-0.0024 0.0024c0.00016,-0.00016 0.00321,-0.00159 0.0024,-0.0024zm-0.22546 -0.27379c-0.0008,-0.00081 -0.0024,0.00126 -0.0024,0.0024l0.0024 -0.0024zm0.00805 -0.0161l0.10654 -0.11893c0.06783,-0.06707 0.18715,-0.14329 0.27671,-0.17422 0.03131,-0.01082 0.05474,-0.01605 0.08877,-0.02425 0.00164,-0.00039 0.04612,-0.00953 0.04677,-0.00952 0.02556,0.00019 0.0168,0.00564 0.0157,0.02233 -0.01138,0.17239 -0.12186,0.41191 -0.25052,0.54026 -0.02243,0.02237 -0.04376,0.03223 -0.0585,0.05424l0.25863 -0.07957c0.57508,-0.17164 1.44982,0.06196 1.32559,0.73778 -0.0153,0.08319 -0.03626,0.08817 -0.04623,0.13093l0.12079 0c0,0.02729 -0.01471,0.08136 0.07274,0.08891 0.07661,0.00661 0.08385,-0.02815 0.13662,-0.03255 -0.01976,0.04119 -0.03702,0.22951 -0.27382,0.22607 -0.04591,-0.00067 -0.13952,-0.01922 -0.20622,0.02665 -0.07965,0.05477 -0.06461,0.13851 -0.09565,0.16204 -0.11443,0.08678 -0.79782,0.06033 -0.94622,0.06033l0.03065 -0.09013c0.02,-0.05514 0.0893,-0.06285 0.15456,-0.06285l0 -0.0161c-0.0003,0.0003 -0.4529,0.00805 -0.48313,0.00805 0.02159,0.04082 0.02416,0.0507 0.02416,0.11274 -0.05848,0.02806 -0.17391,0.0161 -0.25767,0.0161 -0.20645,0 -0.34313,0.04135 -0.29281,-0.10756 0.02077,-0.06144 0.10756,-0.09248 0.1687,-0.10513 0.05494,-0.01138 0.08258,0.00417 0.08385,-0.05304 -0.07648,-0.00636 -0.16347,-0.08428 -0.20308,-0.14317 -0.06307,-0.09376 -0.05459,-0.14391 -0.05459,-0.29165 0.10265,0 0.2067,-0.06443 0.22546,-0.14494 -0.03776,0.02529 -0.05819,0.05945 -0.1071,0.08616 -0.04431,0.0242 -0.09383,0.04214 -0.16465,0.03264 -0.07477,-0.01003 -0.25652,-0.0584 -0.29272,-0.1019 -0.04429,-0.05322 0.00578,-0.28696 0.02196,-0.34198 0.05805,-0.19741 0.19808,-0.33998 0.4023,-0.38684 0.10936,-0.02509 0.08802,0.0169 0.10719,-0.08606 0.01738,-0.09335 0.06585,-0.2003 0.11708,-0.27748 0.09081,-0.13682 0.19219,-0.19388 0.33465,-0.26927 0.0365,0.07607 0.02487,0.19357 0.00805,0.26572 -0.18495,0 -0.38576,0.24037 -0.39457,0.34626l-0 -0.00002z"/>
   <path class="fil4" d="M0.83193 0.90185l-0.0024 0.0024c0.00016,-0.00016 0.00321,-0.00159 0.0024,-0.0024zm-0.22546 -0.27379c-0.0008,-0.00081 -0.0024,0.00126 -0.0024,0.0024l0.0024 -0.0024zm0.00805 -0.0161l0.10654 -0.11893c0.06783,-0.06707 0.18715,-0.14329 0.27671,-0.17422 0.03131,-0.01082 0.05474,-0.01605 0.08877,-0.02425 0.00164,-0.00039 0.04612,-0.00953 0.04677,-0.00952 0.02556,0.00019 0.0168,0.00564 0.0157,0.02233 -0.01138,0.17239 -0.12186,0.41191 -0.25052,0.54026 -0.02243,0.02237 -0.04376,0.03223 -0.0585,0.05424l0.25863 -0.07957c0.57508,-0.17164 1.44982,0.06196 1.32559,0.73778 -0.0153,0.08319 -0.03626,0.08817 -0.04623,0.13093l0.12079 0c0,0.02729 -0.01471,0.08136 0.07274,0.08891 0.07661,0.00661 0.08385,-0.02815 0.13662,-0.03255 -0.01976,0.04119 -0.03702,0.22951 -0.27382,0.22607 -0.04591,-0.00067 -0.13952,-0.01922 -0.20622,0.02665 -0.07965,0.05477 -0.06461,0.13851 -0.09565,0.16204 -0.11443,0.08678 -0.79782,0.06033 -0.94622,0.06033l0.03065 -0.09013c0.02,-0.05514 0.0893,-0.06285 0.15456,-0.06285l0 -0.0161c-0.0003,0.0003 -0.4529,0.00805 -0.48313,0.00805 0.02159,0.04082 0.02416,0.0507 0.02416,0.11274 -0.05848,0.02806 -0.17391,0.0161 -0.25767,0.0161 -0.20645,0 -0.34313,0.04135 -0.29281,-0.10756 0.02077,-0.06144 0.10756,-0.09248 0.1687,-0.10513 0.05494,-0.01138 0.08258,0.00417 0.08385,-0.05304 -0.07648,-0.00636 -0.16347,-0.08428 -0.20308,-0.14317 -0.06307,-0.09376 -0.05459,-0.14391 -0.05459,-0.29165 0.10265,0 0.2067,-0.06443 0.22546,-0.14494 -0.03776,0.02529 -0.05819,0.05945 -0.1071,0.08616 -0.04431,0.0242 -0.09383,0.04214 -0.16465,0.03264 -0.07477,-0.01003 -0.25652,-0.0584 -0.29272,-0.1019 -0.04429,-0.05322 0.00578,-0.28696 0.02196,-0.34198 0.05805,-0.19741 0.19808,-0.33998 0.4023,-0.38684 0.10936,-0.02509 0.08802,0.0169 0.10719,-0.08606 0.01738,-0.09335 0.06585,-0.2003 0.11708,-0.27748 0.09081,-0.13682 0.19219,-0.19388 0.33465,-0.26927 0.0365,0.07607 0.02487,0.19357 0.00805,0.26572 -0.18495,0 -0.38576,0.24037 -0.39457,0.34626l-0 -0.00002z"/>
  </g>
 </g>
</svg>
