<?xml version="1.0" encoding="UTF-8"?>
<!DOCTYPE svg PUBLIC "-//W3C//DTD SVG 1.1//EN" "http://www.w3.org/Graphics/SVG/1.1/DTD/svg11.dtd">
<!-- Creator: CorelDRAW 2021 (64-Bit) -->
<svg xmlns="http://www.w3.org/2000/svg" xml:space="preserve" width="100%" height="100%" version="1.1" style="shape-rendering:geometricPrecision; text-rendering:geometricPrecision; image-rendering:optimizeQuality; fill-rule:evenodd; clip-rule:evenodd"
viewBox="0 0 8.00181 2.12312"
 xmlns:xlink="http://www.w3.org/1999/xlink"
 xmlns:xodm="http://www.corel.com/coreldraw/odm/2003">
 <defs>
  <style type="text/css">
   <![CDATA[
    .fil4 {fill:none}
    .fil1 {fill:#03264C}
    .fil0 {fill:#03264C;fill-rule:nonzero}
    .fil2 {fill:#EAC926;fill-rule:nonzero}
    .fil3 {fill:white;fill-rule:nonzero}
   ]]>
  </style>
    <clipPath id="id0">
     <path d="M0.78317 0.84901l-0.00226 0.00226c0.00015,-0.00015 0.00302,-0.0015 0.00226,-0.00226zm-0.21225 -0.25774c-0.00075,-0.00076 -0.00226,0.00119 -0.00226,0.00226l0.00226 -0.00226zm0.00758 -0.01516l0.10029 -0.11196c0.06386,-0.06314 0.17618,-0.13489 0.26049,-0.16401 0.02948,-0.01019 0.05153,-0.01511 0.08357,-0.02283 0.00154,-0.00037 0.04342,-0.00897 0.04403,-0.00896 0.02407,0.00018 0.01582,0.00531 0.01478,0.02102 -0.01072,0.16229 -0.11472,0.38777 -0.23584,0.50859 -0.02111,0.02106 -0.0412,0.03034 -0.05507,0.05106l0.24347 -0.07491c0.54138,-0.16158 1.36485,0.05833 1.2479,0.69454 -0.0144,0.07831 -0.03414,0.083 -0.04352,0.12325l0.11371 0c0,0.02569 -0.01385,0.07659 0.06848,0.0837 0.07212,0.00622 0.07894,-0.0265 0.12861,-0.03064 -0.0186,0.03877 -0.03485,0.21606 -0.25777,0.21282 -0.04322,-0.00063 -0.13134,-0.01809 -0.19413,0.02509 -0.07498,0.05156 -0.06082,0.13039 -0.09004,0.15254 -0.10772,0.08169 -0.75106,0.05679 -0.89076,0.05679l0.02885 -0.08485c0.01883,-0.05191 0.08407,-0.05917 0.1455,-0.05917l0 -0.01516c-0.00028,0.00028 -0.42636,0.00758 -0.45482,0.00758 0.02033,0.03843 0.02274,0.04773 0.02274,0.10613 -0.05505,0.02641 -0.16372,0.01516 -0.24257,0.01516 -0.19435,0 -0.32302,0.03893 -0.27565,-0.10126 0.01955,-0.05784 0.10125,-0.08706 0.15881,-0.09897 0.05172,-0.01071 0.07774,0.00392 0.07894,-0.04993 -0.072,-0.00599 -0.15389,-0.07934 -0.19118,-0.13478 -0.05937,-0.08826 -0.05139,-0.13547 -0.05139,-0.27456 0.09663,0 0.19459,-0.06065 0.21225,-0.13645 -0.03555,0.02381 -0.05478,0.05597 -0.10082,0.08111 -0.04171,0.02278 -0.08833,0.03967 -0.155,0.03073 -0.07039,-0.00944 -0.24148,-0.05498 -0.27556,-0.09593 -0.04169,-0.0501 0.00544,-0.27014 0.02067,-0.32194 0.05465,-0.18584 0.18647,-0.32005 0.37872,-0.36417 0.10295,-0.02362 0.08286,0.01591 0.10091,-0.08102 0.01636,-0.08788 0.06199,-0.18856 0.11022,-0.26122 0.08549,-0.1288 0.18092,-0.18252 0.31504,-0.25349 0.03436,0.07161 0.02341,0.18223 0.00758,0.25015 -0.17411,0 -0.36315,0.22628 -0.37144,0.32596z"/>
    </clipPath>
 </defs>
 <g id="Capa_x0020_1">
  <metadata id="CorelCorpID_0Corel-Layer"/>
  <g id="_2496129195696">
   <g id="g44">
    <path id="path46" class="fil0" d="M3.13638 0.7002l0 0.42891 -0.17136 0 0 -0.39457c0,-0.19159 0.09639,-0.28679 0.28798,-0.28679 0.08636,0 0.15232,0.01904 0.20043,0.05712 0.04828,-0.03672 0.11424,-0.05457 0.2006,-0.05457 0.19159,0 0.28679,0.0952 0.2856,0.28679l0 0.39474 -0.08755 0c-0.05576,-0.00391 -0.08381,-0.03043 -0.08381,-0.08381l0 -0.3451c-0.00374,-0.06987 -0.04182,-0.10404 -0.11679,-0.10404 -0.0748,0 -0.11288,0.03434 -0.11424,0.10404l0 0.42619 -0.17 0 0 -0.42891c-0.00391,-0.06987 -0.04182,-0.10404 -0.11679,-0.10404 -0.0748,-0.00017 -0.11288,0.03417 -0.11407,0.10404z"/>
   </g>
   <g id="g48">
    <path id="path50" class="fil0" d="M4.76703 0.78517c0.0051,-0.21709 0.11237,-0.33762 0.33694,-0.33762l0.051 -0 0 0.1751 -0.07837 0.0017c-0.09384,0 -0.13804,0.06052 -0.13804,0.15827l0 0.34901 -0.17136 0 0 -0.34646 -0.00017 0z"/>
   </g>
   <g id="g52">
    <g>
     <path id="path54" class="fil0" d="M6.32503 0.84787l0 -0.05491c-0.03927,0.01649 -0.085,0.02329 -0.13447,0.03332 -0.06732,0.01275 -0.10149,0.04437 -0.10149,0.09384 0.00374,0.05338 0.03179,0.07871 0.085,0.07871 0.09384,0 0.15096,-0.05576 0.15096,-0.15096l0 0zm-0.22508 -0.18972l-0.15708 -0.00017c0.00595,-0.12971 0.07123,-0.21607 0.26299,-0.21607 0.1853,0 0.27914,0.06086 0.28305,0.1853l0 0.22848c0,0.1853 -0.11169,0.26775 -0.29308,0.2805 -0.16116,0.01275 -0.27285,-0.06222 -0.27285,-0.21063 0.00374,-0.16116 0.12053,-0.20434 0.29053,-0.22083 0.07225,-0.00884 0.10914,-0.03043 0.10914,-0.06732 -0.00374,-0.03808 -0.03927,-0.05627 -0.10914,-0.05712 -0.07922,-0.00119 -0.10472,0.04607 -0.11356,0.07786z"/>
    </g>
   </g>
   <g id="g56">
    <g>
     <path id="path58" class="fil0" d="M6.75948 0.79152c-0.00119,0.13583 0.04437,0.20434 0.14093,0.20434 0.09639,0 0.14467,-0.06851 0.14467,-0.20434 -0.00374,-0.12937 -0.05066,-0.19295 -0.14212,-0.19295 -0.09146,0 -0.13838,0.06341 -0.14348,0.19295l0 0zm0.45305 -0.55811l0 0.60503c0,0.20179 -0.1054,0.30209 -0.31467,0.30073 -0.20808,-0.00391 -0.31212,-0.11679 -0.31212,-0.34 0,-0.22848 0.08891,-0.3451 0.26775,-0.35156 0.08381,0 0.14858,0.03434 0.19159,0.10404l0 -0.21403 0.00034 -0.01887c0.05576,-0.0833 0.16711,-0.08534 0.16711,-0.08534z"/>
    </g>
   </g>
   <g id="g60">
    <path id="path62" class="fil0" d="M4.20717 1.2338l0.0442 0 0 0.8891 -0.16881 0 0 -0.78047c0,-0.02533 0.05236,-0.10863 0.12461,-0.10863z"/>
   </g>
   <g id="g68">
    <g>
     <path id="path70" class="fil0" d="M4.44362 0.61628c-0.02142,-0.02363 -0.05423,-0.03536 -0.09809,-0.03536 -0.02873,0 -0.05253,0.00493 -0.0714,0.01462 -0.01904,0.00969 -0.03417,0.02176 -0.04556,0.03604 -0.01139,0.01428 -0.01938,0.02958 -0.02397,0.04556 -0.00459,0.01598 -0.00731,0.03043 -0.00816,0.04301l0.29223 0c-0.00867,-0.04573 -0.02363,-0.08024 -0.04505,-0.10387l0 0zm-0.20315 0.34408c0.02703,0.02618 0.06579,0.03927 0.11645,0.03927 0.03621,0 0.06749,-0.00901 0.09367,-0.0272 0.02618,-0.01819 0.04216,-0.0374 0.04811,-0.05763l0.1581 -0c-0.02533,0.07837 -0.06409,0.13447 -0.11645,0.1683 -0.05236,0.03383 -0.1156,0.05066 -0.18972,0.05066 -0.05151,0 -0.09792,-0.00816 -0.13923,-0.02465 -0.04131,-0.01649 -0.07633,-0.03978 -0.10506,-0.07021 -0.02873,-0.03043 -0.05083,-0.06664 -0.06647,-0.1088 -0.01564,-0.04216 -0.02346,-0.08857 -0.02346,-0.13923 0,-0.04896 0.00799,-0.09452 0.02397,-0.13668 0.01598,-0.04216 0.03876,-0.07854 0.06834,-0.10948 0.02958,-0.03077 0.06477,-0.05508 0.10557,-0.07276 0.04097,-0.01768 0.08619,-0.02652 0.136,-0.02652 0.05559,0 0.10421,0.01071 0.14552,0.0323 0.04131,0.02142 0.07531,0.05049 0.10183,0.0867 0.02652,0.03621 0.04573,0.07769 0.05763,0.12393 0.01173,0.04641 0.01598,0.09486 0.01258,0.14552l-0.47192 0c0.00289,0.05814 0.01751,0.1003 0.04454,0.12648z"/>
    </g>
   </g>
   <g id="g72">
    <path id="path74" class="fil0" d="M5.53483 0.57874c-0.0289,0 -0.05321,0.00663 -0.07293,0.01972 -0.01955,0.01326 -0.03553,0.03026 -0.04794,0.05117 -0.01241,0.02091 -0.02108,0.04386 -0.02618,0.06902 -0.0051,0.02516 -0.00765,0.04998 -0.00765,0.0748 0,0.0238 0.00255,0.04811 0.00765,0.07276 0.0051,0.02465 0.01343,0.04709 0.02499,0.06715 0.01156,0.02006 0.02703,0.03638 0.04658,0.04913 0.01955,0.01275 0.04352,0.01921 0.07157,0.01921 0.04352,0 0.07684,-0.01207 0.1003,-0.03638 0.02346,-0.02431 0.03808,-0.05695 0.04403,-0.09775l0.1751 0c-0.0119,0.08772 -0.04607,0.1547 -0.10217,0.2006 -0.05627,0.04607 -0.12818,0.06902 -0.2159,0.06902 -0.04947,0 -0.09469,-0.00833 -0.13617,-0.02499 -0.04131,-0.01666 -0.0765,-0.03978 -0.1054,-0.0697 -0.0289,-0.02975 -0.05151,-0.06545 -0.06766,-0.10676 -0.01615,-0.04131 -0.02431,-0.0867 -0.02431,-0.13617 0,-0.05117 0.00748,-0.0986 0.02244,-0.14246 0.01496,-0.04386 0.03689,-0.08177 0.06579,-0.11373 0.0289,-0.03196 0.06426,-0.05695 0.10608,-0.0748 0.04165,-0.01785 0.08942,-0.02686 0.14314,-0.02686 0.0391,0 0.07684,0.0051 0.11305,0.0153 0.03621,0.0102 0.06851,0.02584 0.09707,0.04658 0.02856,0.02091 0.05168,0.04692 0.0697,0.07786 0.01785,0.03111 0.02805,0.068 0.0306,0.1105l-0.17765 0c-0.0119,-0.07531 -0.05661,-0.11322 -0.13413,-0.11322z"/>
   </g>
   <g id="g76">
    <g>
     <path id="path78" class="fil0" d="M7.50728 0.86818c0.0051,0.02516 0.01377,0.04777 0.02618,0.06766 0.01241,0.02006 0.02873,0.03604 0.04913,0.04794 0.0204,0.0119 0.04607,0.01785 0.07667,0.01785 0.0306,0 0.05644,-0.00595 0.07735,-0.01785 0.02091,-0.0119 0.0374,-0.02788 0.04981,-0.04794 0.01241,-0.02006 0.02108,-0.0425 0.02618,-0.06766 0.0051,-0.02516 0.00765,-0.05083 0.00765,-0.07735 0,-0.02635 -0.00255,-0.05236 -0.00765,-0.07803 -0.0051,-0.0255 -0.01394,-0.04811 -0.02618,-0.06766 -0.01241,-0.01955 -0.0289,-0.03553 -0.04981,-0.04794 -0.02091,-0.01241 -0.04658,-0.01853 -0.07735,-0.01853 -0.0306,0 -0.05627,0.00612 -0.07667,0.01853 -0.0204,0.01241 -0.03689,0.02839 -0.04913,0.04794 -0.01241,0.01955 -0.02108,0.04216 -0.02618,0.06766 -0.0051,0.0255 -0.00765,0.05151 -0.00765,0.07803 0,0.02635 0.00255,0.05219 0.00765,0.07735l0 0zm-0.1649 -0.22117c0.01615,-0.04301 0.0391,-0.07956 0.06902,-0.10982 0.02975,-0.03026 0.06562,-0.05372 0.10727,-0.07021 0.04165,-0.01666 0.08857,-0.02499 0.14059,-0.02499 0.05202,0 0.09911,0.00833 0.14127,0.02499 0.04216,0.01666 0.0782,0.04012 0.10795,0.07021 0.02975,0.03026 0.05287,0.06681 0.06902,0.10982 0.01615,0.04301 0.02431,0.09095 0.02431,0.14382 0,0.05287 -0.00816,0.10047 -0.02431,0.14314 -0.01615,0.04267 -0.03927,0.07905 -0.06902,0.10931 -0.02975,0.03026 -0.06579,0.05355 -0.10795,0.0697 -0.04216,0.01615 -0.08925,0.02431 -0.14127,0.02431 -0.05202,0 -0.09877,-0.00816 -0.14059,-0.02431 -0.04182,-0.01615 -0.07752,-0.03944 -0.10727,-0.0697 -0.02975,-0.03026 -0.05287,-0.06664 -0.06902,-0.10931 -0.01615,-0.04267 -0.02431,-0.09027 -0.02431,-0.14314 0,-0.05287 0.00816,-0.10064 0.02431,-0.14382z"/>
    </g>
   </g>
   <polygon id="path88" class="fil0" points="4.60119,1.3876 4.43238,1.3876 4.43238,1.23392 4.60119,1.23392 "/>
   <polygon id="path90" class="fil0" points="4.60119,2.12285 4.43238,2.12285 4.43238,1.46478 4.60119,1.46478 "/>
   <g id="g84_1_">
    <g>
     <path id="path86_1_" class="fil0" d="M5.16931 1.60564c-0.02142,-0.02363 -0.05423,-0.03536 -0.09809,-0.03536 -0.02873,0 -0.05253,0.00493 -0.0714,0.01462 -0.01904,0.00969 -0.03417,0.02176 -0.04556,0.03604 -0.01139,0.01428 -0.01938,0.02958 -0.02397,0.04556 -0.00459,0.01598 -0.00731,0.03043 -0.00816,0.04301l0.29223 0c-0.0085,-0.04573 -0.02346,-0.08024 -0.04505,-0.10387l0 0zm-0.20298 0.34408c0.02703,0.02618 0.06579,0.03927 0.11645,0.03927 0.03621,0 0.06749,-0.00901 0.09367,-0.0272 0.02618,-0.01819 0.04216,-0.0374 0.04811,-0.05763l0.1581 0c-0.02533,0.07837 -0.06409,0.13447 -0.11645,0.1683 -0.05236,0.03383 -0.1156,0.05066 -0.18972,0.05066 -0.05151,0 -0.09792,-0.00816 -0.13923,-0.02465 -0.04131,-0.01649 -0.07633,-0.03978 -0.10506,-0.07021 -0.02873,-0.03043 -0.05083,-0.06664 -0.06647,-0.1088 -0.01564,-0.04216 -0.02346,-0.08857 -0.02346,-0.13923 0,-0.04896 0.00799,-0.09452 0.02397,-0.13668 0.01598,-0.04216 0.03876,-0.07871 0.06834,-0.10948 0.02958,-0.03077 0.06477,-0.05508 0.10557,-0.07276 0.04097,-0.01768 0.08619,-0.02652 0.136,-0.02652 0.05559,0 0.10421,0.01071 0.14552,0.0323 0.04131,0.02142 0.07531,0.05032 0.10183,0.0867 0.02652,0.03621 0.04573,0.07769 0.05763,0.12393 0.01173,0.04641 0.01598,0.09486 0.01258,0.14552l-0.47192 0c0.00272,0.05814 0.01751,0.1003 0.04454,0.12648z"/>
    </g>
   </g>
   <g id="g64_1_">
    <g>
     <path id="path66_1_" class="fil0" d="M5.79678 1.97939c-0.09639,0 -0.14212,-0.06851 -0.14093,-0.20434 0.0051,-0.12937 0.05202,-0.19295 0.14348,-0.19295 0.09129,0 0.13838,0.06341 0.14212,0.19295 0,0.13583 -0.04828,0.20434 -0.14467,0.20434l0 0zm0.04947 -0.54825c-0.08364,0 -0.14722,0.03434 -0.1904,0.10404l0 -0.30141 -0.01904 0c-0.08415,0.00102 -0.12835,0.0459 -0.1496,0.08262l0 -0.00578 0 0.51136c0,0.20179 0.1054,0.30209 0.31467,0.30073 0.20808,-0.00391 0.31212,-0.11679 0.31212,-0.34017 0,-0.22831 -0.08874,-0.34509 -0.26775,-0.35139z"/>
    </g>
   </g>
   <g id="g80_1_">
    <path id="path82_1_" class="fil0" d="M6.2133 1.7744c0.0051,-0.21709 0.11237,-0.33762 0.33694,-0.33762l0.051 0 0 0.1751 -0.07837 0.0017c-0.09384,0 -0.13804,0.06052 -0.13804,0.15827l0 0.34901 -0.17136 -0 0 -0.34646 -0.00017 0z"/>
   </g>
   <g id="g84_2_">
    <g>
     <path id="path86_2_" class="fil0" d="M7.07127 1.60547c-0.02142,-0.02363 -0.05423,-0.03536 -0.09809,-0.03536 -0.02873,0 -0.05253,0.00493 -0.0714,0.01462 -0.01904,0.00969 -0.03417,0.02176 -0.04556,0.03604 -0.01139,0.01428 -0.01938,0.02958 -0.02397,0.04556 -0.00459,0.01598 -0.00731,0.03043 -0.00816,0.04301l0.29223 0c-0.00867,-0.04556 -0.02363,-0.08024 -0.04505,-0.10387l0 0zm-0.20315 0.34425c0.02703,0.02618 0.06579,0.03927 0.11645,0.03927 0.03621,0 0.06749,-0.00901 0.09367,-0.0272 0.02618,-0.01819 0.04216,-0.0374 0.04811,-0.05763l0.1581 0c-0.02533,0.07837 -0.06409,0.13447 -0.11645,0.1683 -0.05236,0.03383 -0.1156,0.05066 -0.18972,0.05066 -0.05151,0 -0.09792,-0.00816 -0.13923,-0.02465 -0.04131,-0.01649 -0.07633,-0.03978 -0.10506,-0.07021 -0.02873,-0.03043 -0.05083,-0.06664 -0.06647,-0.1088 -0.01564,-0.04216 -0.02346,-0.08857 -0.02346,-0.13923 0,-0.04896 0.00799,-0.09452 0.02397,-0.13668 0.01598,-0.04216 0.03876,-0.07871 0.06834,-0.10948 0.02958,-0.03077 0.06477,-0.05508 0.10557,-0.07276 0.04097,-0.01768 0.08619,-0.02652 0.136,-0.02652 0.05559,0 0.10421,0.01071 0.14552,0.0323 0.04131,0.02142 0.07531,0.05032 0.10183,0.0867 0.02652,0.03621 0.04573,0.07769 0.05763,0.12393 0.01173,0.04641 0.01598,0.09486 0.01258,0.14552l-0.47192 0c0.00289,0.05814 0.01751,0.1003 0.04454,0.12648z"/>
    </g>
   </g>
   <path class="fil1" d="M0.78317 0.84901l-0.00226 0.00226c0.00015,-0.00015 0.00302,-0.0015 0.00226,-0.00226zm-0.21225 -0.25774c-0.00075,-0.00076 -0.00226,0.00119 -0.00226,0.00226l0.00226 -0.00226zm0.00758 -0.01516l0.10029 -0.11196c0.06386,-0.06314 0.17618,-0.13489 0.26049,-0.16401 0.02948,-0.01019 0.05153,-0.01511 0.08357,-0.02283 0.00154,-0.00037 0.04342,-0.00897 0.04403,-0.00896 0.02407,0.00018 0.01582,0.00531 0.01478,0.02102 -0.01072,0.16229 -0.11472,0.38777 -0.23584,0.50859 -0.02111,0.02106 -0.0412,0.03034 -0.05507,0.05106l0.24347 -0.07491c0.54138,-0.16158 1.36485,0.05833 1.2479,0.69454 -0.0144,0.07831 -0.03414,0.083 -0.04352,0.12325l0.11371 0c0,0.02569 -0.01385,0.07659 0.06848,0.0837 0.07212,0.00622 0.07894,-0.0265 0.12861,-0.03064 -0.0186,0.03877 -0.03485,0.21606 -0.25777,0.21282 -0.04322,-0.00063 -0.13134,-0.01809 -0.19413,0.02509 -0.07498,0.05156 -0.06082,0.13039 -0.09004,0.15254 -0.10772,0.08169 -0.75106,0.05679 -0.89076,0.05679l0.02885 -0.08485c0.01883,-0.05191 0.08407,-0.05917 0.1455,-0.05917l0 -0.01516c-0.00028,0.00028 -0.42636,0.00758 -0.45482,0.00758 0.02033,0.03843 0.02274,0.04773 0.02274,0.10613 -0.05505,0.02641 -0.16372,0.01516 -0.24257,0.01516 -0.19435,0 -0.32302,0.03893 -0.27565,-0.10126 0.01955,-0.05784 0.10125,-0.08706 0.15881,-0.09897 0.05172,-0.01071 0.07774,0.00392 0.07894,-0.04993 -0.072,-0.00599 -0.15389,-0.07934 -0.19118,-0.13478 -0.05937,-0.08826 -0.05139,-0.13547 -0.05139,-0.27456 0.09663,0 0.19459,-0.06065 0.21225,-0.13645 -0.03555,0.02381 -0.05478,0.05597 -0.10082,0.08111 -0.04171,0.02278 -0.08833,0.03967 -0.155,0.03073 -0.07039,-0.00944 -0.24148,-0.05498 -0.27556,-0.09593 -0.04169,-0.0501 0.00544,-0.27014 0.02067,-0.32194 0.05465,-0.18584 0.18647,-0.32005 0.37872,-0.36417 0.10295,-0.02362 0.08286,0.01591 0.10091,-0.08102 0.01636,-0.08788 0.06199,-0.18856 0.11022,-0.26122 0.08549,-0.1288 0.18092,-0.18252 0.31504,-0.25349 0.03436,0.07161 0.02341,0.18223 0.00758,0.25015 -0.17411,0 -0.36315,0.22628 -0.37144,0.32596z"/>
   <g style="clip-path:url(#id0)">
    <g>
     <g>
      <g id="g24">
       <path id="_1" class="fil2" d="M2.19506 1.33237c0,0.28261 -0.35807,0.51169 -0.79983,0.51169 -0.44176,0 -0.79983,-0.22907 -0.79983,-0.51169 0,-0.28261 0.35807,-0.51169 0.79983,-0.51169 0.44176,0 0.79983,0.22907 0.79983,0.51169z"/>
      </g>
      <g id="g28">
       <path id="path30" class="fil3" d="M1.12969 1.17093c-0.00039,0.00077 -0.00844,0.00902 -0.0032,0.01571 0.01261,0.0161 0.0516,0.02541 0.09107,0.01649 0.02347,-0.00524 0.05353,-0.02919 0.08273,-0.05237 0.03162,-0.02512 0.06294,-0.05024 0.09446,-0.06023 0.03336,-0.01057 0.0547,-0.00611 0.06886,-0.00174 0.01552,0.00465 0.03365,0.01484 0.06275,0.03666 0.0547,0.04112 0.27485,0.23325 0.31278,0.26642 0.03065,-0.01387 0.16672,-0.07245 0.35167,-0.11318 -0.0161,-0.09863 -0.07604,-0.18883 -0.167,-0.26263 -0.12676,0.05324 -0.28165,0.08098 -0.43323,0.00708 -0.00077,-0.00029 -0.08273,-0.03908 -0.16361,-0.03724 -0.12017,0.00281 -0.17225,0.0548 -0.22733,0.10988l-0.06993 0.07517z"/>
      </g>
      <g id="g32">
       <path id="path34" class="fil3" d="M1.83011 1.41272c-0.00262,-0.00233 -0.25876,-0.22646 -0.31675,-0.2701 -0.03356,-0.02522 -0.05228,-0.03162 -0.07187,-0.03414 -0.01018,-0.00136 -0.02434,0.00058 -0.03414,0.0033 -0.02696,0.00737 -0.06226,0.03094 -0.09359,0.05577 -0.03249,0.0258 -0.06304,0.05014 -0.09146,0.05654 -0.03627,0.00815 -0.08059,-0.00145 -0.10076,-0.01513 -0.00824,-0.00553 -0.01397,-0.01183 -0.01678,-0.01833 -0.00747,-0.01736 0.0063,-0.03113 0.00854,-0.03346l0.0707 -0.07643c0.00824,-0.00824 0.01649,-0.01639 0.02493,-0.02454 -0.02279,0.00301 -0.04394,0.00883 -0.0644,0.01455 -0.02561,0.00717 -0.05024,0.01406 -0.07517,0.01406 -0.01038,0 -0.06615,-0.00911 -0.07671,-0.01202 -0.06401,-0.01756 -0.12017,-0.03453 -0.20396,-0.07371 -0.10048,0.07478 -0.16769,0.16836 -0.18708,0.27136 0.01445,0.00378 0.03773,0.01077 0.04743,0.0129 0.22743,0.05053 0.29833,0.1027 0.31113,0.11357 0.01387,-0.01542 0.03394,-0.02531 0.05635,-0.02531 0.02522,0 0.04781,0.0127 0.06159,0.0322 0.013,-0.01028 0.03104,-0.0191 0.05422,-0.0191 0.01057,0 0.02153,0.00194 0.03258,0.00572 0.02561,0.00883 0.03889,0.0259 0.04578,0.04132 0.00863,-0.00388 0.0192,-0.00679 0.03161,-0.00669 0.01222,0 0.02502,0.00281 0.03783,0.00834 0.0419,0.01804 0.04849,0.05916 0.04461,0.0902 0.00301,-0.00039 0.00602,-0.00049 0.00902,-0.00049 0.04976,0 0.0901,0.04044 0.0901,0.0902 0,0.01542 -0.00397,0.02987 -0.01076,0.04257 0.01348,0.00757 0.04801,0.02483 0.07826,0.02095 0.02415,-0.0031 0.03337,-0.01135 0.03666,-0.016 0.00223,-0.0032 0.00466,-0.00689 0.00243,-0.0096l-0.0642 -0.07128c0,0 -0.01057,-0.00999 -0.00708,-0.01387 0.00359,-0.00398 0.01009,0.00174 0.01474,0.00562 0.03268,0.02726 0.07254,0.06847 0.07254,0.06847 0.00068,0.00039 0.0033,0.00563 0.01804,0.00824 0.0127,0.00223 0.0352,0.00097 0.05072,-0.01183 0.00388,-0.0032 0.00786,-0.00727 0.01115,-0.01144 -0.00029,0.00019 -0.00048,0.00048 -0.00068,0.00058 0.01639,-0.02104 -0.00184,-0.04228 -0.00184,-0.04228l-0.07497 -0.08408c0,0 -0.01067,-0.00989 -0.00708,-0.01387 0.0033,-0.00349 0.01019,0.00174 0.01484,0.00562 0.02376,0.01988 0.05722,0.05344 0.08932,0.08496 0.00631,0.00466 0.03453,0.02202 0.07187,-0.00252 0.02269,-0.01484 0.02725,-0.03317 0.02657,-0.04694 -0.00155,-0.01823 -0.01581,-0.03123 -0.01581,-0.03123l-0.10232 -0.1029c0,0 -0.01076,-0.00922 -0.00698,-0.01387 0.0031,-0.00388 0.01018,0.00174 0.01474,0.00562 0.03259,0.02726 0.12084,0.10814 0.12084,0.10814 0.00126,0.00087 0.03171,0.0226 0.06944,-0.00136 0.01348,-0.00863 0.02211,-0.02163 0.02279,-0.03666 0.00146,-0.02599 -0.01697,-0.04161 -0.01697,-0.04161z"/>
      </g>
      <g id="g36">
       <path id="path38" class="fil3" d="M1.33373 1.54318c-0.01591,-0.00019 -0.03327,0.00921 -0.0355,0.00785 -0.00126,-0.00087 0.00097,-0.00717 0.00243,-0.01086 0.00155,-0.00369 0.0224,-0.06653 -0.02852,-0.08835 -0.03898,-0.01678 -0.06275,0.00204 -0.07099,0.01057 -0.00213,0.00223 -0.0031,0.00204 -0.00339,-0.00078 -0.00078,-0.01135 -0.00582,-0.04199 -0.03947,-0.05218 -0.0481,-0.01474 -0.07894,0.01881 -0.0868,0.03094 -0.00349,-0.02735 -0.02667,-0.04869 -0.05509,-0.04869 -0.03084,0 -0.05587,0.02493 -0.05587,0.05577 0,0.03084 0.02502,0.05577 0.05587,0.05577 0.01494,0 0.02861,-0.00592 0.0386,-0.01561 0.0003,0.00029 0.00049,0.00078 0.0003,0.00184 -0.00233,0.01377 -0.00669,0.06401 0.04587,0.08437 0.02105,0.00815 0.03899,0.00213 0.05383,-0.00834 0.00446,-0.0031 0.00514,-0.00184 0.00456,0.00233 -0.00194,0.0129 0.00048,0.04054 0.03918,0.05625 0.02948,0.01193 0.04694,-0.00029 0.05829,-0.01086 0.00494,-0.00456 0.0063,-0.00378 0.00659,0.0032 0.00136,0.03734 0.03239,0.06702 0.07012,0.06702 0.0388,0 0.07022,-0.03133 0.07031,-0.07012 -0.0001,-0.0387 -0.03152,-0.06973 -0.07031,-0.07012z"/>
      </g>
      <g id="g40">
       <g>
        <path id="path42" class="fil0" d="M1.33373 1.67857c-0.0352,0 -0.06372,-0.02735 -0.06508,-0.06217 -0.00009,-0.00301 -0.00039,-0.01096 -0.00708,-0.01096 -0.00281,0 -0.00514,0.00165 -0.00795,0.00417 -0.00776,0.00717 -0.01756,0.01445 -0.032,0.01445 -0.0065,0 -0.01358,-0.00155 -0.02105,-0.00456 -0.03715,-0.01504 -0.03763,-0.04054 -0.03608,-0.05082 0.00039,-0.00272 0.00049,-0.00553 -0.00136,-0.00786l-0.00223 -0.00204 -0.00233 -0c-0.00194,0 -0.00378,0.00078 -0.0065,0.00262 -0.01076,0.00757 -0.02104,0.01115 -0.03152,0.01115 -0.00572,0 -0.01164,-0.00116 -0.01765,-0.00339 -0.04888,-0.01901 -0.045,-0.06517 -0.04267,-0.07904 0.00039,-0.00281 -0.00039,-0.00494 -0.00213,-0.0064l-0.00349 -0.00281 -0.0032 0.00311c-0.0095,0.00921 -0.02202,0.01416 -0.03511,0.01416 -0.02803,0 -0.05082,-0.02279 -0.05072,-0.05072 0,-0.02803 0.02279,-0.05072 0.05082,-0.05072 0.02531,0 0.04684,0.01901 0.05004,0.04432l0.00175 0.01367 0.00747 -0.01154c0.00087,-0.00136 0.02133,-0.03239 0.05906,-0.0323 0.00718,0 0.01455,0.00117 0.02202,0.00349 0.03007,0.00921 0.0352,0.03647 0.03598,0.04781 0.00049,0.00659 0.00524,0.00689 0.00621,0.00689 0.00262,0 0.00456,-0.00165 0.00582,-0.00311 0.00572,-0.00591 0.01804,-0.01571 0.03734,-0.01571 0.00883,0 0.01824,0.00213 0.02803,0.0063 0.04781,0.02046 0.02609,0.08118 0.0259,0.08185 -0.00407,0.01009 -0.00427,0.01455 -0.00039,0.01707l0.00184 0.00087 0.00135 -0c0.00213,0 0.00485,-0.00097 0.00931,-0.00243 0.0065,-0.00223 0.01629,-0.00563 0.02551,-0.00563l0 0c0.03598,0.00039 0.06527,0.02968 0.06517,0.06527 0.0001,0.03579 -0.02919,0.06498 -0.06507,0.06498l0 0zm0.50626 -0.2926c-0.07895,-0.06886 -0.26128,-0.22743 -0.31064,-0.26448 -0.02822,-0.02124 -0.04743,-0.03239 -0.0644,-0.03743 -0.00756,-0.00233 -0.01813,-0.00495 -0.03162,-0.00495 -0.01261,0 -0.02609,0.00223 -0.04015,0.00679 -0.03191,0.01009 -0.06372,0.0354 -0.09446,0.05984l-0.00155 0.00126c-0.0287,0.02279 -0.05829,0.04636 -0.08069,0.0513 -0.00979,0.00223 -0.01978,0.00339 -0.02987,0.00339 -0.02512,0 -0.04762,-0.00727 -0.05606,-0.01804 -0.00136,-0.00174 -0.00048,-0.00466 0.00281,-0.00883l0.00039 -0.00058 0.06944 -0.07478c0.05441,-0.05441 0.10571,-0.10571 0.22394,-0.10843 0.00194,0 0.00398,-0.0001 0.00592,-0.0001 0.07361,0 0.14713,0.03298 0.15537,0.03676 0.06906,0.03365 0.14024,0.05072 0.21181,0.05082 0.07458,0 0.15159,-0.01843 0.23257,-0.05577 -0.00902,-0.00757 -0.01843,-0.01504 -0.02813,-0.02231 -0.07109,0.03084 -0.13888,0.04646 -0.20415,0.04636 -0.06672,-0.00009 -0.13345,-0.0161 -0.19824,-0.04772 -0.00339,-0.00165 -0.08467,-0.03996 -0.16914,-0.03996 -0.00223,0 -0.00446,0 -0.00669,0.00009 -0.09931,0.00233 -0.15527,0.03763 -0.19281,0.06847 -0.03656,0.00087 -0.06818,0.0097 -0.09621,0.01756 -0.02502,0.00698 -0.04665,0.013 -0.06779,0.013 -0.00873,0 -0.02434,-0.00078 -0.0258,-0.00087 -0.02424,-0.00078 -0.14654,-0.03074 -0.24382,-0.0675 -0.00989,0.00698 -0.01949,0.01426 -0.0288,0.02163 0.10164,0.0417 0.2253,0.0739 0.26428,0.07643 0.01086,0.00068 0.02241,0.00194 0.03404,0.00194 0.0258,0 0.0516,-0.00728 0.07652,-0.01426 0.01474,-0.00417 0.03104,-0.00863 0.0481,-0.01193 -0.00456,0.00446 -0.00912,0.00902 -0.01367,0.01358l-0.07051 0.07633c-0.00553,0.00562 -0.01756,0.02056 -0.0097,0.03898 0.0032,0.00747 0.0096,0.01455 0.01852,0.02056 0.01678,0.01135 0.04694,0.01901 0.07487,0.01901 0.01057,0 0.02065,-0.00107 0.02987,-0.00311 0.02958,-0.00659 0.06061,-0.03132 0.09339,-0.05741 0.02619,-0.02085 0.06333,-0.04723 0.09184,-0.05499 0.00795,-0.00213 0.01775,-0.00349 0.02561,-0.00349 0.00233,0 0.00456,0.00009 0.00659,0.00039 0.01881,0.00243 0.03705,0.00882 0.06944,0.03317 0.0579,0.04345 0.31413,0.26758 0.31656,0.26981 0.00019,0.00019 0.01649,0.01426 0.01542,0.03763 -0.00058,0.01309 -0.00786,0.02463 -0.02046,0.03269 -0.01096,0.00689 -0.02221,0.01047 -0.03365,0.01047 -0.01717,0 -0.0289,-0.00805 -0.02968,-0.00863 -0.00097,-0.00077 -0.08874,-0.08127 -0.12104,-0.10833 -0.00514,-0.00427 -0.01019,-0.00805 -0.01523,-0.00805 -0.00272,0 -0.00504,0.00116 -0.00669,0.0032 -0.00504,0.00631 0.00058,0.01494 0.00728,0.02066l0.10251 0.10309c0.00009,0.0001 0.0128,0.01203 0.01416,0.02774 0.00078,0.01707 -0.00737,0.03133 -0.02434,0.04248 -0.01213,0.00795 -0.02434,0.01202 -0.03637,0.01202 -0.01571,0 -0.02677,-0.00717 -0.02919,-0.00882l-0.01474 -0.01445c-0.02687,-0.02648 -0.0546,-0.05383 -0.07497,-0.0708 -0.00494,-0.00407 -0.01028,-0.00795 -0.01532,-0.00795 -0.00243,0 -0.00475,0.00097 -0.0065,0.00271 -0.00233,0.00262 -0.00388,0.00718 0.00184,0.01484 0.00233,0.0032 0.00514,0.00582 0.00514,0.00582l0.07487 0.08399c0.00058,0.00078 0.01542,0.01833 0.00165,0.03589l-0.00262 0.0033c-0.00223,0.00252 -0.00465,0.00475 -0.00698,0.00669 -0.0128,0.01047 -0.02978,0.01164 -0.03656,0.01164 -0.00359,0 -0.00708,-0.00029 -0.01019,-0.00087 -0.00737,-0.00136 -0.01232,-0.00339 -0.01474,-0.00621l-0.00087 -0.00087c-0.00407,-0.00427 -0.0418,-0.04277 -0.07303,-0.06876 -0.00407,-0.00349 -0.00921,-0.00786 -0.01455,-0.00786 -0.00262,0 -0.00494,0.00107 -0.00679,0.00301 -0.0062,0.00679 0.00311,0.01687 0.00708,0.02056l0.06381 0.07041c-0.0001,0.00068 -0.00087,0.00213 -0.00243,0.00436 -0.00233,0.00311 -0.00999,0.01086 -0.03317,0.01377 -0.00271,0.0003 -0.00562,0.00049 -0.00844,0.00049 -0.02386,0 -0.04937,-0.01154 -0.06246,-0.01852 0.00601,-0.01261 0.00902,-0.02648 0.00902,-0.04044 0,-0.05256 -0.04258,-0.09524 -0.09514,-0.09524 -0.00107,0 -0.00233,0 -0.0034,0.00009 0.00175,-0.02395 -0.00165,-0.06934 -0.0483,-0.08942 -0.01339,-0.00582 -0.02677,-0.00873 -0.03977,-0.00873 -0.01018,0 -0.01998,0.00174 -0.02919,0.00524 -0.0096,-0.01872 -0.0257,-0.03239 -0.04665,-0.03957 -0.01154,-0.00398 -0.02308,-0.00602 -0.03414,-0.00602 -0.0194,0 -0.03724,0.00572 -0.05325,0.01707 -0.01522,-0.01901 -0.03831,-0.03026 -0.06265,-0.03026 -0.02124,0 -0.0417,0.00854 -0.05683,0.02347 -0.01988,-0.01513 -0.09863,-0.06517 -0.30957,-0.11308 -0.01019,-0.00233 -0.03365,-0.00902 -0.04801,-0.01329 -0.00243,0.01144 -0.00417,0.02298 -0.00543,0.03462 0,0 0.03889,0.00931 0.04656,0.01106 0.2154,0.04781 0.28659,0.09766 0.29871,0.10697 -0.00407,0.0098 -0.00621,0.02037 -0.00621,0.03104 0,0.04452 0.03618,0.08079 0.08069,0.08079 0.00504,0 0.00999,-0.00039 0.01484,-0.00136 0.00669,0.03278 0.02813,0.05761 0.06091,0.07031 0.0096,0.00369 0.0193,0.00553 0.02871,0.00553 0.00611,0 0.01231,-0.00078 0.01843,-0.00233 0.00601,0.01542 0.01969,0.03453 0.05014,0.04684 0.01067,0.00427 0.02134,0.00659 0.03171,0.00659 0.00844,0 0.01678,-0.00145 0.02464,-0.00446 0.01455,0.0355 0.04926,0.05907 0.08796,0.05907 0.02561,0 0.05024,-0.01038 0.06818,-0.0289 0.01532,0.00853 0.04781,0.02395 0.08059,0.02405 0.00427,0 0.00824,-0.00029 0.01222,-0.00078 0.03258,-0.00407 0.04772,-0.01678 0.0547,-0.02677 0.00126,-0.00174 0.00243,-0.00359 0.00339,-0.00543 0.00766,0.00223 0.0162,0.00397 0.0258,0.00397 0.01775,0 0.03482,-0.00601 0.05208,-0.01862 0.01697,-0.01222 0.029,-0.02977 0.03074,-0.04471 0,-0.00019 0.00009,-0.00039 0.00009,-0.00068 0.00572,0.00116 0.01154,0.00184 0.01746,0.00184 0.01833,0 0.03627,-0.00572 0.05354,-0.01698 0.03317,-0.02172 0.03899,-0.05024 0.03841,-0.06876 0.00582,0.00126 0.01174,0.00184 0.01765,0.00184 0.01717,0 0.03404,-0.00524 0.05014,-0.01542 0.02056,-0.01319 0.03298,-0.03326 0.03482,-0.05673 0.00126,-0.01591 -0.00262,-0.032 -0.01106,-0.04578 0.05557,-0.02395 0.18272,-0.07031 0.33237,-0.10406 -0.00087,-0.01164 -0.00262,-0.02308 -0.00465,-0.03443 -0.18106,0.04034 -0.31616,0.09882 -0.35001,0.11395z"/>
       </g>
      </g>
     </g>
    </g>
   </g>
   <path class="fil4" d="M0.78317 0.84901l-0.00226 0.00226c0.00015,-0.00015 0.00302,-0.0015 0.00226,-0.00226zm-0.21225 -0.25774c-0.00075,-0.00076 -0.00226,0.00119 -0.00226,0.00226l0.00226 -0.00226zm0.00758 -0.01516l0.10029 -0.11196c0.06386,-0.06314 0.17618,-0.13489 0.26049,-0.16401 0.02948,-0.01019 0.05153,-0.01511 0.08357,-0.02283 0.00154,-0.00037 0.04342,-0.00897 0.04403,-0.00896 0.02407,0.00018 0.01582,0.00531 0.01478,0.02102 -0.01072,0.16229 -0.11472,0.38777 -0.23584,0.50859 -0.02111,0.02106 -0.0412,0.03034 -0.05507,0.05106l0.24347 -0.07491c0.54138,-0.16158 1.36485,0.05833 1.2479,0.69454 -0.0144,0.07831 -0.03414,0.083 -0.04352,0.12325l0.11371 0c0,0.02569 -0.01385,0.07659 0.06848,0.0837 0.07212,0.00622 0.07894,-0.0265 0.12861,-0.03064 -0.0186,0.03877 -0.03485,0.21606 -0.25777,0.21282 -0.04322,-0.00063 -0.13134,-0.01809 -0.19413,0.02509 -0.07498,0.05156 -0.06082,0.13039 -0.09004,0.15254 -0.10772,0.08169 -0.75106,0.05679 -0.89076,0.05679l0.02885 -0.08485c0.01883,-0.05191 0.08407,-0.05917 0.1455,-0.05917l0 -0.01516c-0.00028,0.00028 -0.42636,0.00758 -0.45482,0.00758 0.02033,0.03843 0.02274,0.04773 0.02274,0.10613 -0.05505,0.02641 -0.16372,0.01516 -0.24257,0.01516 -0.19435,0 -0.32302,0.03893 -0.27565,-0.10126 0.01955,-0.05784 0.10125,-0.08706 0.15881,-0.09897 0.05172,-0.01071 0.07774,0.00392 0.07894,-0.04993 -0.072,-0.00599 -0.15389,-0.07934 -0.19118,-0.13478 -0.05937,-0.08826 -0.05139,-0.13547 -0.05139,-0.27456 0.09663,0 0.19459,-0.06065 0.21225,-0.13645 -0.03555,0.02381 -0.05478,0.05597 -0.10082,0.08111 -0.04171,0.02278 -0.08833,0.03967 -0.155,0.03073 -0.07039,-0.00944 -0.24148,-0.05498 -0.27556,-0.09593 -0.04169,-0.0501 0.00544,-0.27014 0.02067,-0.32194 0.05465,-0.18584 0.18647,-0.32005 0.37872,-0.36417 0.10295,-0.02362 0.08286,0.01591 0.10091,-0.08102 0.01636,-0.08788 0.06199,-0.18856 0.11022,-0.26122 0.08549,-0.1288 0.18092,-0.18252 0.31504,-0.25349 0.03436,0.07161 0.02341,0.18223 0.00758,0.25015 -0.17411,0 -0.36315,0.22628 -0.37144,0.32596z"/>
  </g>
 </g>
</svg>
